<svg width="188" height="32" viewBox="0 0 188 32" fill="none" xmlns="http://www.w3.org/2000/svg">
<path d="M15.2 15L11.7681 22.6997C10.7909 24.8922 11.7725 27.462 13.9625 28.4447L14.2304 28.5649C14.8449 28.8407 15.55 28.8298 16.1558 28.5354C18.3165 27.4851 19.2878 24.9355 18.3737 22.7138L15.2 15Z" fill="#F30000" stroke="black"/>
<path d="M5.68 19L2.67647 25.4178C1.75991 27.3763 2.64852 29.7045 4.63689 30.5542L4.86626 30.6522C5.38426 30.8736 5.97185 30.8649 6.48304 30.6282C8.43991 29.7223 9.31822 27.4218 8.46304 25.4422L5.68 19Z" fill="#F30000" stroke="black"/>
<path d="M24.68 18L21.6765 24.4178C20.7599 26.3763 21.6485 28.7045 23.6369 29.5542L23.8663 29.6522C24.3843 29.8736 24.9719 29.8649 25.483 29.6282C27.4399 28.7223 28.3182 26.4218 27.463 24.4422L24.68 18Z" fill="#F30000" stroke="black"/>
<path d="M1.05682 12V3.27273H4.10795C4.71591 3.27273 5.21733 3.37784 5.61222 3.58807C6.0071 3.79545 6.30114 4.07528 6.49432 4.42756C6.6875 4.77699 6.78409 5.16477 6.78409 5.59091C6.78409 5.96591 6.71733 6.27557 6.58381 6.51989C6.45313 6.7642 6.27983 6.95739 6.06392 7.09943C5.85085 7.24148 5.61932 7.34659 5.36932 7.41477V7.5C5.63636 7.51705 5.90483 7.6108 6.17472 7.78125C6.4446 7.9517 6.67045 8.19602 6.85227 8.5142C7.03409 8.83239 7.125 9.22159 7.125 9.68182C7.125 10.1193 7.02557 10.5128 6.8267 10.8622C6.62784 11.2116 6.31392 11.4886 5.88494 11.6932C5.45597 11.8977 4.89773 12 4.21023 12H1.05682ZM2.11364 11.0625H4.21023C4.90057 11.0625 5.39063 10.929 5.6804 10.6619C5.97301 10.392 6.11932 10.0653 6.11932 9.68182C6.11932 9.38636 6.04403 9.11364 5.89347 8.86364C5.7429 8.6108 5.52841 8.40909 5.25 8.25852C4.97159 8.10511 4.64205 8.02841 4.26136 8.02841H2.11364V11.0625ZM2.11364 7.10795H4.07386C4.39205 7.10795 4.67898 7.04545 4.93466 6.92045C5.19318 6.79545 5.39773 6.61932 5.5483 6.39205C5.7017 6.16477 5.77841 5.89773 5.77841 5.59091C5.77841 5.20739 5.64489 4.8821 5.37784 4.61506C5.1108 4.34517 4.6875 4.21023 4.10795 4.21023H2.11364V7.10795ZM9.73082 3.27273V12H8.72514V3.27273H9.73082ZM14.2319 12.1364C13.641 12.1364 13.1225 11.9957 12.6765 11.7145C12.2333 11.4332 11.8867 11.0398 11.6367 10.5341C11.3896 10.0284 11.266 9.4375 11.266 8.76136C11.266 8.07955 11.3896 7.48437 11.6367 6.97585C11.8867 6.46733 12.2333 6.07244 12.6765 5.79119C13.1225 5.50994 13.641 5.36932 14.2319 5.36932C14.8228 5.36932 15.3398 5.50994 15.783 5.79119C16.229 6.07244 16.5756 6.46733 16.8228 6.97585C17.0728 7.48437 17.1978 8.07955 17.1978 8.76136C17.1978 9.4375 17.0728 10.0284 16.8228 10.5341C16.5756 11.0398 16.229 11.4332 15.783 11.7145C15.3398 11.9957 14.8228 12.1364 14.2319 12.1364ZM14.2319 11.233C14.6808 11.233 15.0501 11.1179 15.3398 10.8878C15.6296 10.6577 15.8441 10.3551 15.9833 9.98011C16.1225 9.60511 16.1921 9.19886 16.1921 8.76136C16.1921 8.32386 16.1225 7.91619 15.9833 7.53835C15.8441 7.16051 15.6296 6.85511 15.3398 6.62216C15.0501 6.3892 14.6808 6.27273 14.2319 6.27273C13.783 6.27273 13.4137 6.3892 13.1239 6.62216C12.8342 6.85511 12.6197 7.16051 12.4805 7.53835C12.3413 7.91619 12.2717 8.32386 12.2717 8.76136C12.2717 9.19886 12.3413 9.60511 12.4805 9.98011C12.6197 10.3551 12.8342 10.6577 13.1239 10.8878C13.4137 11.1179 13.783 11.233 14.2319 11.233ZM21.392 12.1364C20.8011 12.1364 20.2827 11.9957 19.8366 11.7145C19.3935 11.4332 19.0469 11.0398 18.7969 10.5341C18.5497 10.0284 18.4261 9.4375 18.4261 8.76136C18.4261 8.07955 18.5497 7.48437 18.7969 6.97585C19.0469 6.46733 19.3935 6.07244 19.8366 5.79119C20.2827 5.50994 20.8011 5.36932 21.392 5.36932C21.983 5.36932 22.5 5.50994 22.9432 5.79119C23.3892 6.07244 23.7358 6.46733 23.983 6.97585C24.233 7.48437 24.358 8.07955 24.358 8.76136C24.358 9.4375 24.233 10.0284 23.983 10.5341C23.7358 11.0398 23.3892 11.4332 22.9432 11.7145C22.5 11.9957 21.983 12.1364 21.392 12.1364ZM21.392 11.233C21.8409 11.233 22.2102 11.1179 22.5 10.8878C22.7898 10.6577 23.0043 10.3551 23.1435 9.98011C23.2827 9.60511 23.3523 9.19886 23.3523 8.76136C23.3523 8.32386 23.2827 7.91619 23.1435 7.53835C23.0043 7.16051 22.7898 6.85511 22.5 6.62216C22.2102 6.3892 21.8409 6.27273 21.392 6.27273C20.9432 6.27273 20.5739 6.3892 20.2841 6.62216C19.9943 6.85511 19.7798 7.16051 19.6406 7.53835C19.5014 7.91619 19.4318 8.32386 19.4318 8.76136C19.4318 9.19886 19.5014 9.60511 19.6406 9.98011C19.7798 10.3551 19.9943 10.6577 20.2841 10.8878C20.5739 11.1179 20.9432 11.233 21.392 11.233ZM28.3647 12.1364C27.8192 12.1364 27.3377 11.9986 26.9201 11.723C26.5025 11.4446 26.1758 11.0526 25.94 10.5469C25.7042 10.0384 25.5863 9.4375 25.5863 8.74432C25.5863 8.05682 25.7042 7.46023 25.94 6.95455C26.1758 6.44886 26.5039 6.05824 26.9244 5.78267C27.3448 5.5071 27.8306 5.36932 28.3817 5.36932C28.8079 5.36932 29.1445 5.44034 29.3917 5.58239C29.6417 5.72159 29.832 5.88068 29.9627 6.05966C30.0962 6.2358 30.1999 6.38068 30.2738 6.49432H30.359V3.27273H31.3647V12H30.3931V10.9943H30.2738C30.1999 11.1136 30.0948 11.2642 29.9585 11.446C29.8221 11.625 29.6275 11.7855 29.3746 11.9276C29.1218 12.0668 28.7852 12.1364 28.3647 12.1364ZM28.5011 11.233C28.9045 11.233 29.2454 11.1278 29.5238 10.9176C29.8022 10.7045 30.0138 10.4105 30.1587 10.0355C30.3036 9.65767 30.3761 9.22159 30.3761 8.72727C30.3761 8.23864 30.305 7.81108 30.163 7.4446C30.021 7.07528 29.8107 6.78835 29.5323 6.58381C29.2539 6.37642 28.9102 6.27273 28.5011 6.27273C28.0749 6.27273 27.7198 6.3821 27.4357 6.60085C27.1545 6.81676 26.9428 7.1108 26.8008 7.48295C26.6616 7.85227 26.592 8.26705 26.592 8.72727C26.592 9.19318 26.663 9.61648 26.805 9.99716C26.9499 10.375 27.163 10.6761 27.4442 10.9006C27.7283 11.1222 28.0806 11.233 28.5011 11.233ZM36.8576 12V3.27273H39.9087C40.5167 3.27273 41.0181 3.37784 41.413 3.58807C41.8079 3.79545 42.1019 4.07528 42.2951 4.42756C42.4883 4.77699 42.5849 5.16477 42.5849 5.59091C42.5849 5.96591 42.5181 6.27557 42.3846 6.51989C42.2539 6.7642 42.0806 6.95739 41.8647 7.09943C41.6516 7.24148 41.4201 7.34659 41.1701 7.41477V7.5C41.4371 7.51705 41.7056 7.6108 41.9755 7.78125C42.2454 7.9517 42.4712 8.19602 42.6531 8.5142C42.8349 8.83239 42.9258 9.22159 42.9258 9.68182C42.9258 10.1193 42.8263 10.5128 42.6275 10.8622C42.4286 11.2116 42.1147 11.4886 41.6857 11.6932C41.2567 11.8977 40.6985 12 40.011 12H36.8576ZM37.9144 11.0625H40.011C40.7013 11.0625 41.1914 10.929 41.4812 10.6619C41.7738 10.392 41.9201 10.0653 41.9201 9.68182C41.9201 9.38636 41.8448 9.11364 41.6942 8.86364C41.5437 8.6108 41.3292 8.40909 41.0508 8.25852C40.7724 8.10511 40.4428 8.02841 40.0621 8.02841H37.9144V11.0625ZM37.9144 7.10795H39.8746C40.1928 7.10795 40.4798 7.04545 40.7354 6.92045C40.994 6.79545 41.1985 6.61932 41.3491 6.39205C41.5025 6.16477 41.5792 5.89773 41.5792 5.59091C41.5792 5.20739 41.4457 4.8821 41.1786 4.61506C40.9116 4.34517 40.4883 4.21023 39.9087 4.21023H37.9144V7.10795ZM46.4521 12.1534C46.0373 12.1534 45.6609 12.0753 45.3228 11.919C44.9847 11.7599 44.7163 11.5312 44.5174 11.233C44.3185 10.9318 44.2191 10.5682 44.2191 10.142C44.2191 9.76705 44.293 9.46307 44.4407 9.23011C44.5884 8.99432 44.7859 8.80966 45.033 8.67614C45.2802 8.54261 45.5529 8.44318 45.8512 8.37784C46.1523 8.30966 46.4549 8.25568 46.7589 8.21591C47.1566 8.16477 47.479 8.12642 47.7262 8.10085C47.9762 8.07244 48.158 8.02557 48.2717 7.96023C48.3881 7.89489 48.4464 7.78125 48.4464 7.61932V7.58523C48.4464 7.16477 48.3313 6.83807 48.1012 6.60511C47.8739 6.37216 47.5288 6.25568 47.0657 6.25568C46.5856 6.25568 46.2092 6.3608 45.9364 6.57102C45.6637 6.78125 45.4719 7.00568 45.3612 7.24432L44.4066 6.90341C44.5771 6.50568 44.8043 6.19602 45.0884 5.97443C45.3754 5.75 45.6879 5.59375 46.0259 5.50568C46.3668 5.41477 46.7021 5.36932 47.0316 5.36932C47.2418 5.36932 47.4833 5.39489 47.756 5.44602C48.0316 5.49432 48.2972 5.59517 48.5529 5.74858C48.8114 5.90199 49.0259 6.13352 49.1964 6.44318C49.3668 6.75284 49.4521 7.16761 49.4521 7.6875V12H48.4464V11.1136H48.3952C48.3271 11.2557 48.2134 11.4077 48.0543 11.5696C47.8952 11.7315 47.6836 11.8693 47.4194 11.983C47.1552 12.0966 46.8327 12.1534 46.4521 12.1534ZM46.6055 11.25C47.0032 11.25 47.3384 11.1719 47.6112 11.0156C47.8867 10.8594 48.0941 10.6577 48.2333 10.4105C48.3754 10.1634 48.4464 9.90341 48.4464 9.63068V8.71023C48.4038 8.76136 48.31 8.80824 48.1651 8.85085C48.0231 8.89062 47.8583 8.92614 47.6708 8.95739C47.4862 8.9858 47.3058 9.01136 47.1296 9.03409C46.9563 9.05398 46.8157 9.07102 46.7077 9.08523C46.4464 9.11932 46.2021 9.17472 45.9748 9.25142C45.7504 9.32528 45.5685 9.4375 45.4293 9.58807C45.293 9.7358 45.2248 9.9375 45.2248 10.1932C45.2248 10.5426 45.354 10.8068 45.6126 10.9858C45.8739 11.1619 46.2049 11.25 46.6055 11.25ZM52.2933 8.0625V12H51.2876V5.45455H52.2592V6.47727H52.3445C52.4979 6.14489 52.7308 5.87784 53.0433 5.67614C53.3558 5.47159 53.7592 5.36932 54.2536 5.36932C54.6967 5.36932 55.0845 5.46023 55.4169 5.64205C55.7493 5.82102 56.0078 6.09375 56.1925 6.46023C56.3771 6.82386 56.4695 7.28409 56.4695 7.84091V12H55.4638V7.90909C55.4638 7.39489 55.3303 6.99432 55.0632 6.70739C54.7962 6.41761 54.4297 6.27273 53.9638 6.27273C53.6428 6.27273 53.3558 6.34233 53.103 6.48153C52.853 6.62074 52.6555 6.82386 52.5107 7.09091C52.3658 7.35795 52.2933 7.68182 52.2933 8.0625ZM59.2447 9.61364L59.2276 8.36932H59.4322L62.2958 5.45455H63.5401L60.489 8.53977H60.4038L59.2447 9.61364ZM58.3072 12V3.27273H59.3129V12H58.3072ZM62.4663 12L59.9094 8.76136L60.6254 8.0625L63.7447 12H62.4663ZM68.3459 3.27273H69.6072L72.5732 10.517H72.6754L75.6413 3.27273H76.9027V12H75.9141V5.36932H75.8288L73.1016 12H72.147L69.4197 5.36932H69.3345V12H68.3459V3.27273ZM80.8114 12.1534C80.3967 12.1534 80.0202 12.0753 79.6822 11.919C79.3441 11.7599 79.0756 11.5312 78.8768 11.233C78.6779 10.9318 78.5785 10.5682 78.5785 10.142C78.5785 9.76705 78.6523 9.46307 78.8001 9.23011C78.9478 8.99432 79.1452 8.80966 79.3924 8.67614C79.6396 8.54261 79.9123 8.44318 80.2106 8.37784C80.5117 8.30966 80.8143 8.25568 81.1183 8.21591C81.516 8.16477 81.8384 8.12642 82.0856 8.10085C82.3356 8.07244 82.5174 8.02557 82.631 7.96023C82.7475 7.89489 82.8058 7.78125 82.8058 7.61932V7.58523C82.8058 7.16477 82.6907 6.83807 82.4606 6.60511C82.2333 6.37216 81.8881 6.25568 81.4251 6.25568C80.945 6.25568 80.5685 6.3608 80.2958 6.57102C80.0231 6.78125 79.8313 7.00568 79.7205 7.24432L78.766 6.90341C78.9364 6.50568 79.1637 6.19602 79.4478 5.97443C79.7347 5.75 80.0472 5.59375 80.3853 5.50568C80.7262 5.41477 81.0614 5.36932 81.391 5.36932C81.6012 5.36932 81.8427 5.39489 82.1154 5.44602C82.391 5.49432 82.6566 5.59517 82.9123 5.74858C83.1708 5.90199 83.3853 6.13352 83.5558 6.44318C83.7262 6.75284 83.8114 7.16761 83.8114 7.6875V12H82.8058V11.1136H82.7546C82.6864 11.2557 82.5728 11.4077 82.4137 11.5696C82.2546 11.7315 82.043 11.8693 81.7788 11.983C81.5146 12.0966 81.1921 12.1534 80.8114 12.1534ZM80.9648 11.25C81.3626 11.25 81.6978 11.1719 81.9705 11.0156C82.2461 10.8594 82.4535 10.6577 82.5927 10.4105C82.7347 10.1634 82.8058 9.90341 82.8058 9.63068V8.71023C82.7631 8.76136 82.6694 8.80824 82.5245 8.85085C82.3825 8.89062 82.2177 8.92614 82.0302 8.95739C81.8455 8.9858 81.6651 9.01136 81.489 9.03409C81.3157 9.05398 81.1751 9.07102 81.0671 9.08523C80.8058 9.11932 80.5614 9.17472 80.3342 9.25142C80.1097 9.32528 79.9279 9.4375 79.7887 9.58807C79.6523 9.7358 79.5842 9.9375 79.5842 10.1932C79.5842 10.5426 79.7134 10.8068 79.9719 10.9858C80.2333 11.1619 80.5643 11.25 80.9648 11.25ZM86.6527 8.0625V12H85.647V5.45455H86.6186V6.47727H86.7038C86.8572 6.14489 87.0902 5.87784 87.4027 5.67614C87.7152 5.47159 88.1186 5.36932 88.6129 5.36932C89.0561 5.36932 89.4439 5.46023 89.7763 5.64205C90.1087 5.82102 90.3672 6.09375 90.5518 6.46023C90.7365 6.82386 90.8288 7.28409 90.8288 7.84091V12H89.8232V7.90909C89.8232 7.39489 89.6896 6.99432 89.4226 6.70739C89.1555 6.41761 88.7891 6.27273 88.3232 6.27273C88.0021 6.27273 87.7152 6.34233 87.4624 6.48153C87.2124 6.62074 87.0149 6.82386 86.87 7.09091C86.7251 7.35795 86.6527 7.68182 86.6527 8.0625ZM94.5927 12.1534C94.1779 12.1534 93.8015 12.0753 93.4634 11.919C93.1254 11.7599 92.8569 11.5312 92.658 11.233C92.4592 10.9318 92.3597 10.5682 92.3597 10.142C92.3597 9.76705 92.4336 9.46307 92.5813 9.23011C92.729 8.99432 92.9265 8.80966 93.1737 8.67614C93.4208 8.54261 93.6935 8.44318 93.9918 8.37784C94.293 8.30966 94.5955 8.25568 94.8995 8.21591C95.2972 8.16477 95.6197 8.12642 95.8668 8.10085C96.1168 8.07244 96.2987 8.02557 96.4123 7.96023C96.5288 7.89489 96.587 7.78125 96.587 7.61932V7.58523C96.587 7.16477 96.4719 6.83807 96.2418 6.60511C96.0146 6.37216 95.6694 6.25568 95.2063 6.25568C94.7262 6.25568 94.3498 6.3608 94.0771 6.57102C93.8043 6.78125 93.6126 7.00568 93.5018 7.24432L92.5472 6.90341C92.7177 6.50568 92.945 6.19602 93.229 5.97443C93.516 5.75 93.8285 5.59375 94.1665 5.50568C94.5075 5.41477 94.8427 5.36932 95.1722 5.36932C95.3825 5.36932 95.6239 5.39489 95.8967 5.44602C96.1722 5.49432 96.4379 5.59517 96.6935 5.74858C96.9521 5.90199 97.1665 6.13352 97.337 6.44318C97.5075 6.75284 97.5927 7.16761 97.5927 7.6875V12H96.587V11.1136H96.5359C96.4677 11.2557 96.354 11.4077 96.195 11.5696C96.0359 11.7315 95.8242 11.8693 95.56 11.983C95.2958 12.0966 94.9734 12.1534 94.5927 12.1534ZM94.7461 11.25C95.1438 11.25 95.479 11.1719 95.7518 11.0156C96.0273 10.8594 96.2347 10.6577 96.3739 10.4105C96.516 10.1634 96.587 9.90341 96.587 9.63068V8.71023C96.5444 8.76136 96.4506 8.80824 96.3058 8.85085C96.1637 8.89062 95.9989 8.92614 95.8114 8.95739C95.6268 8.9858 95.4464 9.01136 95.2702 9.03409C95.0969 9.05398 94.9563 9.07102 94.8484 9.08523C94.587 9.11932 94.3427 9.17472 94.1154 9.25142C93.891 9.32528 93.7092 9.4375 93.57 9.58807C93.4336 9.7358 93.3654 9.9375 93.3654 10.1932C93.3654 10.5426 93.4947 10.8068 93.7532 10.9858C94.0146 11.1619 94.3455 11.25 94.7461 11.25ZM102.07 14.5909C101.585 14.5909 101.167 14.5284 100.817 14.4034C100.468 14.2812 100.177 14.1193 99.9439 13.9176C99.7138 13.7188 99.5305 13.5057 99.3942 13.2784L100.195 12.7159C100.286 12.8352 100.401 12.9716 100.54 13.125C100.68 13.2812 100.87 13.4162 101.112 13.5298C101.356 13.6463 101.675 13.7045 102.07 13.7045C102.599 13.7045 103.035 13.5767 103.379 13.321C103.722 13.0653 103.894 12.6648 103.894 12.1193V10.7898H103.809C103.735 10.9091 103.63 11.0568 103.494 11.233C103.36 11.4062 103.167 11.5611 102.914 11.6974C102.664 11.831 102.326 11.8977 101.9 11.8977C101.371 11.8977 100.897 11.7727 100.477 11.5227C100.059 11.2727 99.728 10.9091 99.4837 10.4318C99.2422 9.95455 99.1214 9.375 99.1214 8.69318C99.1214 8.02273 99.2393 7.43892 99.4751 6.94176C99.7109 6.44176 100.039 6.0554 100.46 5.78267C100.88 5.5071 101.366 5.36932 101.917 5.36932C102.343 5.36932 102.681 5.44034 102.931 5.58239C103.184 5.72159 103.377 5.88068 103.511 6.05966C103.647 6.2358 103.752 6.38068 103.826 6.49432H103.928V5.45455H104.9V12.1875C104.9 12.75 104.772 13.2074 104.516 13.5597C104.263 13.9148 103.923 14.1747 103.494 14.3395C103.067 14.5071 102.593 14.5909 102.07 14.5909ZM102.036 10.9943C102.44 10.9943 102.781 10.902 103.059 10.7173C103.337 10.5327 103.549 10.267 103.694 9.92045C103.839 9.57386 103.911 9.15909 103.911 8.67614C103.911 8.20455 103.84 7.78835 103.698 7.42756C103.556 7.06676 103.346 6.78409 103.067 6.57955C102.789 6.375 102.445 6.27273 102.036 6.27273C101.61 6.27273 101.255 6.38068 100.971 6.59659C100.69 6.8125 100.478 7.10227 100.336 7.46591C100.197 7.82955 100.127 8.23295 100.127 8.67614C100.127 9.13068 100.198 9.53267 100.34 9.8821C100.485 10.2287 100.698 10.5014 100.979 10.7003C101.263 10.8963 101.616 10.9943 102.036 10.9943ZM109.485 12.1364C108.854 12.1364 108.31 11.9972 107.853 11.7188C107.398 11.4375 107.048 11.0455 106.8 10.5426C106.556 10.0369 106.434 9.44886 106.434 8.77841C106.434 8.10795 106.556 7.51705 106.8 7.00568C107.048 6.49148 107.391 6.09091 107.832 5.80398C108.275 5.5142 108.792 5.36932 109.383 5.36932C109.724 5.36932 110.06 5.42614 110.393 5.53977C110.725 5.65341 111.028 5.83807 111.3 6.09375C111.573 6.34659 111.79 6.68182 111.952 7.09943C112.114 7.51705 112.195 8.03125 112.195 8.64205V9.06818H107.15V8.19886H111.173C111.173 7.82955 111.099 7.5 110.951 7.21023C110.806 6.92045 110.599 6.69176 110.329 6.52415C110.062 6.35653 109.746 6.27273 109.383 6.27273C108.982 6.27273 108.636 6.37216 108.343 6.57102C108.053 6.76705 107.83 7.02273 107.674 7.33807C107.518 7.65341 107.44 7.99148 107.44 8.35227V8.93182C107.44 9.42614 107.525 9.84517 107.695 10.1889C107.869 10.5298 108.109 10.7898 108.415 10.9688C108.722 11.1449 109.079 11.233 109.485 11.233C109.749 11.233 109.988 11.196 110.201 11.1222C110.417 11.0455 110.603 10.9318 110.759 10.7812C110.915 10.6278 111.036 10.4375 111.121 10.2102L112.093 10.483C111.991 10.8125 111.819 11.1023 111.577 11.3523C111.336 11.5994 111.038 11.7926 110.683 11.9318C110.327 12.0682 109.928 12.1364 109.485 12.1364ZM113.725 12V5.45455H114.697V6.47727H114.782C114.918 6.12784 115.138 5.85653 115.442 5.66335C115.746 5.46733 116.112 5.36932 116.538 5.36932C116.969 5.36932 117.329 5.46733 117.616 5.66335C117.906 5.85653 118.131 6.12784 118.293 6.47727H118.362C118.529 6.1392 118.781 5.87074 119.116 5.67188C119.451 5.47017 119.853 5.36932 120.322 5.36932C120.907 5.36932 121.386 5.55256 121.758 5.91903C122.13 6.28267 122.316 6.84943 122.316 7.61932V12H121.31V7.61932C121.31 7.13636 121.178 6.79119 120.914 6.58381C120.65 6.37642 120.339 6.27273 119.981 6.27273C119.521 6.27273 119.164 6.41193 118.911 6.69034C118.658 6.96591 118.532 7.31534 118.532 7.73864V12H117.509V7.51705C117.509 7.14489 117.388 6.84517 117.147 6.6179C116.906 6.38778 116.594 6.27273 116.214 6.27273C115.952 6.27273 115.708 6.34233 115.481 6.48153C115.256 6.62074 115.075 6.81392 114.935 7.06108C114.799 7.3054 114.731 7.58807 114.731 7.90909V12H113.725ZM126.899 12.1364C126.268 12.1364 125.724 11.9972 125.267 11.7188C124.812 11.4375 124.462 11.0455 124.214 10.5426C123.97 10.0369 123.848 9.44886 123.848 8.77841C123.848 8.10795 123.97 7.51705 124.214 7.00568C124.462 6.49148 124.805 6.09091 125.246 5.80398C125.689 5.5142 126.206 5.36932 126.797 5.36932C127.138 5.36932 127.474 5.42614 127.807 5.53977C128.139 5.65341 128.442 5.83807 128.714 6.09375C128.987 6.34659 129.205 6.68182 129.366 7.09943C129.528 7.51705 129.609 8.03125 129.609 8.64205V9.06818H124.564V8.19886H128.587C128.587 7.82955 128.513 7.5 128.365 7.21023C128.22 6.92045 128.013 6.69176 127.743 6.52415C127.476 6.35653 127.161 6.27273 126.797 6.27273C126.396 6.27273 126.05 6.37216 125.757 6.57102C125.467 6.76705 125.244 7.02273 125.088 7.33807C124.932 7.65341 124.854 7.99148 124.854 8.35227V8.93182C124.854 9.42614 124.939 9.84517 125.109 10.1889C125.283 10.5298 125.523 10.7898 125.83 10.9688C126.136 11.1449 126.493 11.233 126.899 11.233C127.163 11.233 127.402 11.196 127.615 11.1222C127.831 11.0455 128.017 10.9318 128.173 10.7812C128.33 10.6278 128.45 10.4375 128.536 10.2102L129.507 10.483C129.405 10.8125 129.233 11.1023 128.991 11.3523C128.75 11.5994 128.452 11.7926 128.097 11.9318C127.741 12.0682 127.342 12.1364 126.899 12.1364ZM132.145 8.0625V12H131.139V5.45455H132.111V6.47727H132.196C132.349 6.14489 132.582 5.87784 132.895 5.67614C133.207 5.47159 133.611 5.36932 134.105 5.36932C134.548 5.36932 134.936 5.46023 135.268 5.64205C135.601 5.82102 135.859 6.09375 136.044 6.46023C136.229 6.82386 136.321 7.28409 136.321 7.84091V12H135.315V7.90909C135.315 7.39489 135.182 6.99432 134.915 6.70739C134.648 6.41761 134.281 6.27273 133.815 6.27273C133.494 6.27273 133.207 6.34233 132.955 6.48153C132.705 6.62074 132.507 6.82386 132.362 7.09091C132.217 7.35795 132.145 7.68182 132.145 8.0625ZM141.005 5.45455V6.30682H137.613V5.45455H141.005ZM138.602 3.88636H139.608V10.125C139.608 10.4091 139.649 10.6222 139.731 10.7642C139.816 10.9034 139.924 10.9972 140.055 11.0455C140.189 11.0909 140.329 11.1136 140.477 11.1136C140.588 11.1136 140.679 11.108 140.75 11.0966C140.821 11.0824 140.877 11.071 140.92 11.0625L141.125 11.9659C141.056 11.9915 140.961 12.017 140.839 12.0426C140.717 12.071 140.562 12.0852 140.375 12.0852C140.091 12.0852 139.812 12.0241 139.539 11.902C139.27 11.7798 139.045 11.5938 138.866 11.3438C138.69 11.0938 138.602 10.7784 138.602 10.3977V3.88636ZM150.802 5.45455C150.751 5.02273 150.544 4.6875 150.18 4.44886C149.816 4.21023 149.37 4.09091 148.842 4.09091C148.456 4.09091 148.118 4.15341 147.828 4.27841C147.541 4.40341 147.316 4.57528 147.154 4.79403C146.995 5.01278 146.916 5.26136 146.916 5.53977C146.916 5.77273 146.971 5.97301 147.082 6.14062C147.196 6.3054 147.341 6.44318 147.517 6.55398C147.693 6.66193 147.877 6.75142 148.071 6.82244C148.264 6.89062 148.441 6.94602 148.603 6.98864L149.49 7.22727C149.717 7.28693 149.97 7.36932 150.248 7.47443C150.529 7.57955 150.798 7.72301 151.054 7.90483C151.312 8.08381 151.525 8.31392 151.693 8.59517C151.86 8.87642 151.944 9.22159 151.944 9.63068C151.944 10.1023 151.821 10.5284 151.574 10.9091C151.329 11.2898 150.971 11.5923 150.5 11.8168C150.031 12.0412 149.461 12.1534 148.791 12.1534C148.166 12.1534 147.625 12.0526 147.167 11.8509C146.713 11.6491 146.355 11.3679 146.093 11.0071C145.835 10.6463 145.689 10.2273 145.654 9.75H146.745C146.774 10.0795 146.885 10.3523 147.078 10.5682C147.274 10.7812 147.521 10.9403 147.819 11.0455C148.12 11.1477 148.444 11.1989 148.791 11.1989C149.194 11.1989 149.556 11.1335 149.877 11.0028C150.199 10.8693 150.453 10.6847 150.64 10.4489C150.828 10.2102 150.922 9.93182 150.922 9.61364C150.922 9.32386 150.841 9.08807 150.679 8.90625C150.517 8.72443 150.304 8.5767 150.039 8.46307C149.775 8.34943 149.49 8.25 149.183 8.16477L148.109 7.85795C147.427 7.66193 146.887 7.3821 146.49 7.01847C146.092 6.65483 145.893 6.17898 145.893 5.59091C145.893 5.10227 146.025 4.67614 146.289 4.3125C146.556 3.94602 146.914 3.66193 147.363 3.46023C147.815 3.25568 148.319 3.15341 148.876 3.15341C149.439 3.15341 149.939 3.25426 150.376 3.45597C150.814 3.65483 151.16 3.92756 151.416 4.27415C151.674 4.62074 151.811 5.0142 151.825 5.45455H150.802ZM154.193 14.4545C154.023 14.4545 153.871 14.4403 153.737 14.4119C153.604 14.3864 153.511 14.3608 153.46 14.3352L153.716 13.4489C153.96 13.5114 154.176 13.5341 154.364 13.517C154.551 13.5 154.717 13.4162 154.862 13.2656C155.01 13.1179 155.145 12.8778 155.267 12.5455L155.455 12.0341L153.034 5.45455H154.125L155.932 10.6705H156L157.807 5.45455H158.898L156.119 12.9545C155.994 13.2926 155.839 13.5724 155.655 13.794C155.47 14.0185 155.256 14.1847 155.011 14.2926C154.77 14.4006 154.497 14.4545 154.193 14.4545ZM164.862 6.92045L163.958 7.17614C163.901 7.02557 163.817 6.87926 163.707 6.73722C163.599 6.59233 163.451 6.47301 163.263 6.37926C163.076 6.28551 162.836 6.23864 162.543 6.23864C162.143 6.23864 161.809 6.33097 161.542 6.51562C161.278 6.69744 161.146 6.92898 161.146 7.21023C161.146 7.46023 161.237 7.65767 161.418 7.80256C161.6 7.94744 161.884 8.06818 162.271 8.16477L163.242 8.40341C163.827 8.54545 164.263 8.76278 164.55 9.0554C164.837 9.34517 164.981 9.71875 164.981 10.1761C164.981 10.5511 164.873 10.8864 164.657 11.1818C164.444 11.4773 164.146 11.7102 163.762 11.8807C163.379 12.0511 162.933 12.1364 162.424 12.1364C161.756 12.1364 161.204 11.9915 160.766 11.7017C160.329 11.4119 160.052 10.9886 159.935 10.4318L160.89 10.1932C160.981 10.5455 161.153 10.8097 161.406 10.9858C161.661 11.1619 161.995 11.25 162.407 11.25C162.876 11.25 163.248 11.1506 163.523 10.9517C163.802 10.75 163.941 10.5085 163.941 10.2273C163.941 10 163.862 9.80966 163.702 9.65625C163.543 9.5 163.299 9.38352 162.969 9.30682L161.879 9.05114C161.279 8.90909 160.839 8.68892 160.558 8.39062C160.279 8.08949 160.14 7.71307 160.14 7.26136C160.14 6.89205 160.244 6.56534 160.451 6.28125C160.661 5.99716 160.947 5.77415 161.308 5.61222C161.671 5.45028 162.083 5.36932 162.543 5.36932C163.191 5.36932 163.7 5.51136 164.069 5.79545C164.441 6.07955 164.705 6.45455 164.862 6.92045ZM169.341 5.45455V6.30682H165.949V5.45455H169.341ZM166.938 3.88636H167.944V10.125C167.944 10.4091 167.985 10.6222 168.067 10.7642C168.152 10.9034 168.26 10.9972 168.391 11.0455C168.525 11.0909 168.665 11.1136 168.813 11.1136C168.924 11.1136 169.015 11.108 169.086 11.0966C169.157 11.0824 169.213 11.071 169.256 11.0625L169.461 11.9659C169.392 11.9915 169.297 12.017 169.175 12.0426C169.053 12.071 168.898 12.0852 168.711 12.0852C168.426 12.0852 168.148 12.0241 167.875 11.902C167.605 11.7798 167.381 11.5938 167.202 11.3438C167.026 11.0938 166.938 10.7784 166.938 10.3977V3.88636ZM173.528 12.1364C172.897 12.1364 172.353 11.9972 171.896 11.7188C171.441 11.4375 171.091 11.0455 170.843 10.5426C170.599 10.0369 170.477 9.44886 170.477 8.77841C170.477 8.10795 170.599 7.51705 170.843 7.00568C171.091 6.49148 171.434 6.09091 171.875 5.80398C172.318 5.5142 172.835 5.36932 173.426 5.36932C173.767 5.36932 174.103 5.42614 174.436 5.53977C174.768 5.65341 175.071 5.83807 175.343 6.09375C175.616 6.34659 175.833 6.68182 175.995 7.09943C176.157 7.51705 176.238 8.03125 176.238 8.64205V9.06818H171.193V8.19886H175.216C175.216 7.82955 175.142 7.5 174.994 7.21023C174.849 6.92045 174.642 6.69176 174.372 6.52415C174.105 6.35653 173.789 6.27273 173.426 6.27273C173.025 6.27273 172.679 6.37216 172.386 6.57102C172.096 6.76705 171.873 7.02273 171.717 7.33807C171.561 7.65341 171.483 7.99148 171.483 8.35227V8.93182C171.483 9.42614 171.568 9.84517 171.738 10.1889C171.912 10.5298 172.152 10.7898 172.458 10.9688C172.765 11.1449 173.122 11.233 173.528 11.233C173.792 11.233 174.031 11.196 174.244 11.1222C174.46 11.0455 174.646 10.9318 174.802 10.7812C174.958 10.6278 175.079 10.4375 175.164 10.2102L176.136 10.483C176.034 10.8125 175.862 11.1023 175.62 11.3523C175.379 11.5994 175.081 11.7926 174.725 11.9318C174.37 12.0682 173.971 12.1364 173.528 12.1364ZM177.768 12V5.45455H178.74V6.47727H178.825C178.961 6.12784 179.181 5.85653 179.485 5.66335C179.789 5.46733 180.154 5.36932 180.581 5.36932C181.012 5.36932 181.372 5.46733 181.659 5.66335C181.949 5.85653 182.174 6.12784 182.336 6.47727H182.404C182.572 6.1392 182.824 5.87074 183.159 5.67188C183.494 5.47017 183.896 5.36932 184.365 5.36932C184.95 5.36932 185.429 5.55256 185.801 5.91903C186.173 6.28267 186.359 6.84943 186.359 7.61932V12H185.353V7.61932C185.353 7.13636 185.221 6.79119 184.957 6.58381C184.693 6.37642 184.382 6.27273 184.024 6.27273C183.564 6.27273 183.207 6.41193 182.954 6.69034C182.701 6.96591 182.575 7.31534 182.575 7.73864V12H181.552V7.51705C181.552 7.14489 181.431 6.84517 181.19 6.6179C180.949 6.38778 180.637 6.27273 180.257 6.27273C179.995 6.27273 179.751 6.34233 179.524 6.48153C179.299 6.62074 179.118 6.81392 178.978 7.06108C178.842 7.3054 178.774 7.58807 178.774 7.90909V12H177.768Z" fill="black"/>
<path d="M59.232 25.256C58.856 24.776 58.668 24.144 58.668 23.36C58.668 22.496 58.892 21.828 59.34 21.356C59.732 20.932 60.252 20.72 60.9 20.72C61.564 20.72 62.076 20.928 62.436 21.344C62.748 21.704 62.904 22.184 62.904 22.784V24.008C62.904 24.616 62.724 25.1 62.364 25.46C62.004 25.812 61.512 25.992 60.888 26H59.364C58.484 26 58.044 26.456 58.044 27.368V29.36L57.24 29.78V27.344C57.24 26.68 57.436 26.16 57.828 25.784C58.18 25.44 58.648 25.264 59.232 25.256ZM62.1 23.936V22.856C62.1 21.92 61.7 21.452 60.9 21.452C60.444 21.452 60.088 21.62 59.832 21.956C59.584 22.292 59.46 22.756 59.46 23.348C59.46 23.948 59.58 24.416 59.82 24.752C60.06 25.088 60.392 25.256 60.816 25.256C61.672 25.256 62.1 24.816 62.1 23.936ZM63.9872 26L64.3712 25.256H66.6272C66.9952 25.256 67.2512 25.164 67.3952 24.98C67.5472 24.796 67.6232 24.476 67.6232 24.02C67.6232 22.844 67.1072 21.968 66.0752 21.392L66.4712 20.732C67.7432 21.468 68.3912 22.504 68.4152 23.84C68.4232 24.784 68.8832 25.256 69.7952 25.256H70.1672V26H69.7112C69.0152 26 68.4832 25.768 68.1152 25.304C67.8432 25.768 67.3912 26 66.7592 26H63.9872ZM69.923 26V25.256H71.555V26H69.923ZM71.3175 26V25.256H72.9495V26H71.3175ZM72.712 26V25.256H74.344V26H72.712ZM74.1066 26V25.256H75.7386V26H74.1066ZM75.5011 26V25.256H77.1331V26H75.5011ZM76.8956 26V25.256H78.5276V26H76.8956ZM78.2902 26V25.256H79.9222V26H78.2902ZM79.6847 26V25.256H81.3167V26H79.6847ZM81.0792 26V25.256H82.7112V26H81.0792ZM82.4737 26V25.256H84.1058V26H82.4737ZM83.8683 26V25.256H85.5003V26H83.8683ZM85.2628 26V25.256H85.5988C86.5108 25.256 86.9668 24.784 86.9668 23.84V18.68L87.7708 18.26V23.852C87.7708 24.532 87.5708 25.068 87.1708 25.46C86.7948 25.82 86.2988 26 85.6828 26H85.2628ZM89.9316 26V18.68L90.7356 18.26V26H89.9316ZM105.367 25.256H105.775V26H105.259C104.539 26 103.999 25.756 103.639 25.268C103.279 25.756 102.735 26 102.007 26H97.7232C97.1312 26 96.6592 25.816 96.3072 25.448C95.9552 25.072 95.7792 24.568 95.7792 23.936V22.364L96.5832 21.944V23.84C96.5832 24.784 97.0232 25.256 97.9032 25.256H101.923C102.795 25.256 103.231 24.784 103.231 23.84V18.68L104.035 18.26V23.888C104.035 24.8 104.479 25.256 105.367 25.256ZM99.8592 20.276C100.187 20.276 100.447 20.364 100.639 20.54C100.831 20.716 100.927 20.952 100.927 21.248C100.927 21.512 100.847 21.724 100.687 21.884C100.535 22.036 100.331 22.112 100.075 22.112H98.5872L98.8152 21.692H100.039C100.343 21.692 100.495 21.54 100.495 21.236C100.495 20.868 100.263 20.684 99.7992 20.684C99.5592 20.684 99.3552 20.732 99.1872 20.828V20.42L100.171 19.316H100.675L99.8472 20.276H99.8592ZM105.536 26V25.256H107.168V26H105.536ZM106.931 26V25.256H108.563V26H106.931ZM108.325 26V25.256H109.957V26H108.325ZM109.72 26V25.256H111.352V26H109.72ZM113.118 19.28C112.79 19.28 112.626 19.112 112.626 18.776C112.626 18.456 112.79 18.296 113.118 18.296C113.43 18.296 113.586 18.456 113.586 18.776C113.586 19.112 113.43 19.28 113.118 19.28ZM114.978 25.256H115.398V26H114.882C114.162 26 113.622 25.756 113.262 25.268C112.886 25.756 112.342 26 111.63 26H111.114V25.256H111.534C112.414 25.256 112.854 24.8 112.854 23.888V21.284L113.658 20.864V23.888C113.658 24.8 114.098 25.256 114.978 25.256ZM115.157 26V25.256H115.577C116.457 25.256 116.897 24.8 116.897 23.888V21.284L117.701 20.864V23.912C117.701 24.584 117.505 25.108 117.113 25.484C116.753 25.828 116.273 26 115.673 26H115.157ZM116.753 28.244C116.425 28.244 116.261 28.076 116.261 27.74C116.261 27.42 116.425 27.26 116.753 27.26C117.065 27.26 117.221 27.42 117.221 27.74C117.221 28.076 117.065 28.244 116.753 28.244ZM123.992 19.22C123.672 19.22 123.512 19.052 123.512 18.716C123.512 18.396 123.672 18.236 123.992 18.236C124.312 18.236 124.472 18.396 124.472 18.716C124.472 19.052 124.312 19.22 123.992 19.22ZM125.36 19.22C125.04 19.22 124.88 19.052 124.88 18.716C124.88 18.396 125.04 18.236 125.36 18.236C125.68 18.236 125.84 18.396 125.84 18.716C125.84 19.052 125.68 19.22 125.36 19.22ZM124.7 26C123.988 26 123.432 25.764 123.032 25.292C122.696 24.884 122.528 24.356 122.528 23.708C122.528 22.228 123.272 21.232 124.76 20.72C126.248 21.232 126.992 22.228 126.992 23.708C126.992 24.452 126.772 25.032 126.332 25.448C125.948 25.816 125.444 26 124.82 26H124.7ZM124.664 25.256H124.856C125.272 25.256 125.6 25.12 125.84 24.848C126.08 24.568 126.2 24.188 126.2 23.708C126.2 22.644 125.72 21.892 124.76 21.452C123.8 21.892 123.32 22.644 123.32 23.708C123.32 24.18 123.44 24.556 123.68 24.836C123.92 25.116 124.248 25.256 124.664 25.256ZM130.457 25.424C130.457 26.88 129.921 27.792 128.849 28.16C128.593 28.248 128.321 28.292 128.033 28.292C127.569 28.292 127.121 28.18 126.689 27.956V27.248C127.097 27.472 127.513 27.584 127.937 27.584C128.273 27.584 128.569 27.508 128.825 27.356C129.385 27.02 129.665 26.392 129.665 25.472V21.284L130.457 20.864V25.424ZM132.611 26V18.68L133.415 18.26V26H132.611ZM134.616 26L135 25.256H137.256C137.624 25.256 137.88 25.164 138.024 24.98C138.176 24.796 138.252 24.476 138.252 24.02C138.252 22.852 137.74 21.976 136.716 21.392L137.1 20.732C138.404 21.492 139.056 22.592 139.056 24.032C139.056 25.344 138.5 26 137.388 26H134.616ZM140.307 18.092L140.535 17.672H140.835C140.755 17.536 140.715 17.392 140.715 17.24C140.715 17.016 140.799 16.82 140.967 16.652C141.143 16.484 141.343 16.4 141.567 16.4C141.743 16.4 141.915 16.456 142.083 16.568V17.012C141.931 16.9 141.779 16.844 141.627 16.844C141.499 16.844 141.387 16.884 141.291 16.964C141.203 17.044 141.159 17.14 141.159 17.252C141.159 17.396 141.219 17.536 141.339 17.672H142.383L142.155 18.092H140.307ZM140.967 26V19.16L141.771 18.74V26H140.967ZM147.966 25.256C147.59 24.776 147.402 24.144 147.402 23.36C147.402 22.496 147.626 21.828 148.074 21.356C148.466 20.932 148.986 20.72 149.634 20.72C150.298 20.72 150.81 20.928 151.17 21.344C151.482 21.704 151.638 22.184 151.638 22.784V24.008C151.638 24.616 151.458 25.1 151.098 25.46C150.738 25.812 150.246 25.992 149.622 26H148.098C147.218 26 146.778 26.456 146.778 27.368V29.36L145.974 29.78V27.344C145.974 26.68 146.17 26.16 146.562 25.784C146.914 25.44 147.382 25.264 147.966 25.256ZM150.834 23.936V22.856C150.834 21.92 150.434 21.452 149.634 21.452C149.178 21.452 148.822 21.62 148.566 21.956C148.318 22.292 148.194 22.756 148.194 23.348C148.194 23.948 148.314 24.416 148.554 24.752C148.794 25.088 149.126 25.256 149.55 25.256C150.406 25.256 150.834 24.816 150.834 23.936ZM155.71 26C155.03 26 154.506 25.78 154.138 25.34C153.834 24.964 153.682 24.488 153.682 23.912V18.68L154.486 18.26V23.888C154.486 24.8 154.926 25.256 155.806 25.256H156.226V26H155.71ZM167.025 25.256V26H166.509C165.837 26 165.317 25.784 164.949 25.352C164.661 25.784 164.197 26 163.557 26H155.985V25.256H158.013V18.68L158.757 18.26V23.3C159.693 21.58 160.933 20.72 162.477 20.72C163.373 20.72 164.085 21.028 164.613 21.644C165.061 22.172 165.285 22.824 165.285 23.6V23.912C165.285 24.808 165.729 25.256 166.617 25.256H167.025ZM164.481 23.6C164.481 22.928 164.269 22.388 163.845 21.98C163.485 21.628 163.033 21.452 162.489 21.452C161.553 21.452 160.721 21.904 159.993 22.808C159.441 23.488 159.033 24.304 158.769 25.256H163.473C163.857 25.256 164.121 25.168 164.265 24.992C164.409 24.808 164.481 24.476 164.481 23.996V23.6ZM162.405 19.28C162.077 19.28 161.913 19.112 161.913 18.776C161.913 18.456 162.077 18.296 162.405 18.296C162.717 18.296 162.873 18.456 162.873 18.776C162.873 19.112 162.717 19.28 162.405 19.28ZM166.79 26V25.256H168.422V26H166.79ZM168.185 26V25.256H169.817V26H168.185ZM169.579 26V25.256H171.211V26H169.579ZM170.974 26V25.256H172.606V26H170.974ZM172.368 26V25.256H174V26H172.368ZM173.763 26V25.256H175.395V26H173.763ZM175.157 26V25.256H176.789V26H175.157ZM176.552 26V25.256H178.184V26H176.552ZM177.946 26V25.256H179.578V26H177.946ZM179.341 26V25.256H180.973V26H179.341ZM182.823 19.28C182.495 19.28 182.331 19.112 182.331 18.776C182.331 18.456 182.495 18.296 182.823 18.296C183.135 18.296 183.291 18.456 183.291 18.776C183.291 19.112 183.135 19.28 182.823 19.28ZM180.735 26V25.256H181.155C182.035 25.256 182.475 24.8 182.475 23.888V21.284L183.279 20.864V23.912C183.279 24.584 183.083 25.108 182.691 25.484C182.331 25.828 181.851 26 181.251 26H180.735Z" fill="black"/>
</svg>
