<svg width="44" height="44" viewBox="0 0 44 44" fill="none" xmlns="http://www.w3.org/2000/svg">
<path d="M21.9999 7.33331C22.4861 7.33331 22.9525 7.52647 23.2963 7.87028C23.6401 8.2141 23.8333 8.68042 23.8333 9.16665V20.1666H34.8333C35.3195 20.1666 35.7858 20.3598 36.1296 20.7036C36.4734 21.0474 36.6666 21.5138 36.6666 22C36.6666 22.4862 36.4734 22.9525 36.1296 23.2963C35.7858 23.6402 35.3195 23.8333 34.8333 23.8333H23.8333V34.8333C23.8333 35.3195 23.6401 35.7859 23.2963 36.1297C22.9525 36.4735 22.4861 36.6666 21.9999 36.6666C21.5137 36.6666 21.0474 36.4735 20.7036 36.1297C20.3597 35.7859 20.1666 35.3195 20.1666 34.8333V23.8333H9.16659C8.68036 23.8333 8.21404 23.6402 7.87022 23.2963C7.52641 22.9525 7.33325 22.4862 7.33325 22C7.33325 21.5138 7.52641 21.0474 7.87022 20.7036C8.21404 20.3598 8.68036 20.1666 9.16659 20.1666H20.1666V9.16665C20.1666 8.68042 20.3597 8.2141 20.7036 7.87028C21.0474 7.52647 21.5137 7.33331 21.9999 7.33331Z" fill="#2EAE1D"/>
</svg>
