<svg width="27" height="27" viewBox="0 0 27 27" fill="none" xmlns="http://www.w3.org/2000/svg">
<path d="M13.3333 26.6667C20.6973 26.6667 26.6667 20.6973 26.6667 13.3333C26.6667 5.96933 20.6973 0 13.3333 0C5.96933 0 0 5.96933 0 13.3333C0 20.6973 5.96933 26.6667 13.3333 26.6667ZM18.9427 10.9427L12.9427 16.9427C12.6926 17.1926 12.3536 17.333 12 17.333C11.6464 17.333 11.3074 17.1926 11.0573 16.9427L8.39067 14.276C8.26332 14.153 8.16174 14.0059 8.09187 13.8432C8.02199 13.6805 7.9852 13.5056 7.98367 13.3285C7.98213 13.1515 8.01586 12.9759 8.0829 12.8121C8.14995 12.6482 8.24895 12.4993 8.37414 12.3741C8.49933 12.249 8.6482 12.1499 8.81206 12.0829C8.97592 12.0159 9.1515 11.9821 9.32854 11.9837C9.50557 11.9852 9.68053 12.022 9.84321 12.0919C10.0059 12.1617 10.153 12.2633 10.276 12.3907L12 14.1147L17.0573 9.05733C17.1803 8.92999 17.3275 8.82841 17.4901 8.75853C17.6528 8.68865 17.8278 8.65187 18.0048 8.65033C18.1818 8.6488 18.3574 8.68253 18.5213 8.74957C18.6851 8.81661 18.834 8.91562 18.9592 9.04081C19.0844 9.166 19.1834 9.31487 19.2504 9.47873C19.3175 9.64259 19.3512 9.81816 19.3497 9.9952C19.3481 10.1722 19.3113 10.3472 19.2415 10.5099C19.1716 10.6725 19.07 10.8197 18.9427 10.9427Z" fill="#2EAE1D"/>
</svg>
