<svg width="292" height="269" viewBox="0 0 292 269" fill="none" xmlns="http://www.w3.org/2000/svg">
<path d="M-1.00006 0V131.71C-1.00006 157.645 5.04623 181.326 17.1388 202.752C29.2288 224.178 45.2649 241.286 65.2469 254.074C55.7971 244.613 48.33 233.413 42.8456 220.476C37.3611 207.539 34.6189 193.632 34.6189 178.755C34.6189 163.073 38.3996 145.404 45.9611 125.747C53.5225 106.09 64.6011 84.4548 79.1969 60.8409L-1.00006 0ZM145.428 3.42253C117.102 37.8829 95.1658 70.3387 79.6193 100.79C64.0754 131.244 56.3034 157.232 56.3034 178.755C56.3034 203.786 64.9731 225.071 82.3124 242.611C99.6492 260.153 120.688 268.924 145.428 268.924C170.169 268.924 191.208 260.153 208.544 242.611C225.884 225.071 234.553 203.786 234.553 178.755C234.553 157.232 226.749 131.159 211.141 100.535C195.53 69.9114 173.626 37.5406 145.428 3.42253ZM291.934 0L211.66 60.9624C226.078 84.524 237.111 106.127 244.76 125.771C252.412 145.412 256.238 163.073 256.238 178.755C256.238 193.632 253.496 207.539 248.011 220.476C242.527 233.413 235.06 244.613 225.61 254.074C245.592 241.286 261.641 224.178 273.757 202.752C285.875 181.326 291.934 157.645 291.934 131.71V0Z" fill="#AD0D0D"/>
</svg>
