<svg width="36" height="34" viewBox="0 0 36 34" fill="none" xmlns="http://www.w3.org/2000/svg">
<path d="M30 3.03516H27V0H21V3.03516H15V0H9V3.03516H6C2.7 3.03516 0 5.7668 0 9.10547V27.3164C0 30.6551 2.7 33.3867 6 33.3867H30C33.3 33.3867 36 30.6551 36 27.3164V9.10547C36 5.7668 33.3 3.03516 30 3.03516ZM21 15.1758C21 16.3898 20.4 17.3004 19.8 18.2109C20.4 19.1215 21 20.032 21 21.2461V22.7637C21 25.1918 18.9 27.3164 16.5 27.3164H13.5C11.1 27.3164 9 25.1918 9 22.7637V21.2461H12V22.7637C12 23.6742 12.6 24.2812 13.5 24.2812H16.5C17.4 24.2812 18 23.6742 18 22.7637V21.2461C18 20.3355 17.4 19.7285 16.5 19.7285H15V16.6934H16.5C17.4 16.6934 18 16.0863 18 15.1758V13.6582C18 12.7477 17.4 12.1406 16.5 12.1406H13.5C12.6 12.1406 12 12.7477 12 13.6582V15.1758H9V13.6582C9 11.2301 11.1 9.10547 13.5 9.10547H16.5C18.9 9.10547 21 11.2301 21 13.6582V15.1758ZM27 27.3164H24V9.10547H27V27.3164Z" fill="#82181A"/>
</svg>
