<svg width="32" height="32" viewBox="0 0 32 32" fill="none" xmlns="http://www.w3.org/2000/svg">
<path d="M16.0001 26.6666C13.1711 26.6666 10.458 25.5428 8.45761 23.5424C6.45723 21.5421 5.33342 18.8289 5.33342 16H2.66675C2.66675 23.364 8.63609 29.3333 16.0001 29.3333V26.6666ZM16.0001 5.3333C18.8291 5.3333 21.5422 6.45711 23.5426 8.4575C25.5429 10.4579 26.6668 13.171 26.6668 16H29.3334C29.3334 8.63597 23.3641 2.66664 16.0001 2.66664V5.3333ZM5.33342 16C5.33118 14.5989 5.60605 13.2111 6.14219 11.9167C6.67833 10.6222 7.46517 9.44652 8.45742 8.4573L6.57342 6.5733C5.3336 7.80966 4.35025 9.27876 3.67982 10.8962C3.0094 12.5137 2.66512 14.2477 2.66675 15.9986L5.33342 16ZM8.45742 8.4573C9.44663 7.46505 10.6223 6.67821 11.9168 6.14207C13.2113 5.60593 14.599 5.33107 16.0001 5.3333V2.66664C14.2488 2.66448 12.5144 3.00838 10.8964 3.67858C9.27845 4.34878 7.80887 5.33208 6.57209 6.57197L8.45742 8.4573ZM6.57209 8.4573L23.5428 25.428L25.4281 23.5426L8.45742 6.57197L6.57209 8.4573ZM26.6668 16C26.669 17.4011 26.3941 18.7888 25.858 20.0833C25.3218 21.3778 24.535 22.5534 23.5428 23.5426L25.4281 25.428C26.668 24.1912 27.6513 22.7216 28.3215 21.1036C28.9917 19.4857 29.3356 17.7512 29.3334 16H26.6668ZM23.5428 23.5426C22.5535 24.5349 21.3779 25.3217 20.0834 25.8579C18.7889 26.394 17.4012 26.6689 16.0001 26.6666V29.3333C17.7514 29.3355 19.4858 28.9916 21.1038 28.3214C22.7217 27.6512 24.1913 26.6679 25.4281 25.428L23.5428 23.5426Z" fill="#FB2C36"/>
</svg>
