<svg width="42" height="42" viewBox="0 0 42 42" fill="none" xmlns="http://www.w3.org/2000/svg">
<path d="M40.4472 3.53052H33.36C33.0648 3.53052 32.8248 3.77212 32.8248 4.07199C32.8248 4.16426 32.8536 4.24681 32.8932 4.32209V8.44747C32.8932 9.08364 32.3844 9.5984 31.7556 9.5984H29.55C28.9668 9.5984 28.494 9.12006 28.494 8.53003V4.38886C28.56 4.29902 28.6068 4.1934 28.6068 4.07199C28.6068 3.77212 28.368 3.53052 28.0716 3.53052H13.7856C13.4904 3.53052 13.2504 3.77212 13.2504 4.07199C13.2504 4.15576 13.2732 4.23225 13.3068 4.30388V8.47661C13.3068 9.09699 12.81 9.59962 12.1968 9.59962H10.2384C9.6192 9.59962 9.1176 9.09214 9.1176 8.46568V4.33423C9.162 4.25531 9.1932 4.16911 9.1932 4.07199C9.1932 3.77212 8.9544 3.53052 8.658 3.53052H1.1904C0.534 3.53052 0 4.07078 0 4.73365V40.5898C0 41.2551 0.534 41.7953 1.1904 41.7953H40.4472C41.1024 41.7953 41.6364 41.2551 41.6364 40.5898V4.73365C41.6364 4.07078 41.1024 3.53052 40.4472 3.53052ZM40.4472 40.7124H1.1904C1.1232 40.7124 1.0704 40.659 1.0704 40.5898V13.549H40.566V40.5886C40.566 40.6578 40.5144 40.7124 40.4472 40.7124Z" fill="#82181A"/>
<path d="M11.357 8.36489C11.6522 8.36489 11.8922 8.12208 11.8922 7.82342V0.541472C11.8922 0.242813 11.6534 0 11.357 0C11.0606 0 10.8218 0.242813 10.8218 0.541472V7.82463C10.8218 8.12329 11.0618 8.36489 11.357 8.36489Z" fill="#82181A"/>
<path d="M30.7417 8.36489C31.0369 8.36489 31.2769 8.12208 31.2769 7.82342V0.541472C31.2769 0.242813 31.0381 0 30.7417 0C30.4453 0 30.2065 0.242813 30.2065 0.541472V7.82463C30.2065 8.12329 30.4453 8.36489 30.7417 8.36489Z" fill="#82181A"/>
<path d="M8.59071 21.7402C10.2197 21.7402 11.5403 20.4042 11.5403 18.7561C11.5403 17.108 10.2197 15.7719 8.59071 15.7719C6.96169 15.7719 5.64111 17.108 5.64111 18.7561C5.64111 20.4042 6.96169 21.7402 8.59071 21.7402Z" fill="#82181A"/>
<path d="M17.0678 21.7402C18.6968 21.7402 20.0174 20.4042 20.0174 18.7561C20.0174 17.108 18.6968 15.7719 17.0678 15.7719C15.4387 15.7719 14.1182 17.108 14.1182 18.7561C14.1182 20.4042 15.4387 21.7402 17.0678 21.7402Z" fill="#82181A"/>
<path d="M25.5434 21.7402C27.1724 21.7402 28.493 20.4042 28.493 18.7561C28.493 17.108 27.1724 15.7719 25.5434 15.7719C23.9143 15.7719 22.5938 17.108 22.5938 18.7561C22.5938 20.4042 23.9143 21.7402 25.5434 21.7402Z" fill="#82181A"/>
<path d="M8.59071 30.0505C10.2197 30.0505 11.5403 28.7144 11.5403 27.0663C11.5403 25.4182 10.2197 24.0822 8.59071 24.0822C6.96169 24.0822 5.64111 25.4182 5.64111 27.0663C5.64111 28.7144 6.96169 30.0505 8.59071 30.0505Z" fill="#82181A"/>
<path d="M17.0678 30.0505C18.6968 30.0505 20.0174 28.7144 20.0174 27.0663C20.0174 25.4182 18.6968 24.0822 17.0678 24.0822C15.4387 24.0822 14.1182 25.4182 14.1182 27.0663C14.1182 28.7144 15.4387 30.0505 17.0678 30.0505Z" fill="#82181A"/>
<path d="M25.5434 30.0505C27.1724 30.0505 28.493 28.7144 28.493 27.0663C28.493 25.4182 27.1724 24.0822 25.5434 24.0822C23.9143 24.0822 22.5938 25.4182 22.5938 27.0663C22.5938 28.7144 23.9143 30.0505 25.5434 30.0505Z" fill="#82181A"/>
<path d="M8.59071 38.3607C10.2197 38.3607 11.5403 37.0247 11.5403 35.3766C11.5403 33.7285 10.2197 32.3924 8.59071 32.3924C6.96169 32.3924 5.64111 33.7285 5.64111 35.3766C5.64111 37.0247 6.96169 38.3607 8.59071 38.3607Z" fill="#82181A"/>
<path d="M17.0678 38.3607C18.6968 38.3607 20.0174 37.0247 20.0174 35.3766C20.0174 33.7285 18.6968 32.3924 17.0678 32.3924C15.4387 32.3924 14.1182 33.7285 14.1182 35.3766C14.1182 37.0247 15.4387 38.3607 17.0678 38.3607Z" fill="#82181A"/>
<path d="M25.5434 38.3607C27.1724 38.3607 28.493 37.0247 28.493 35.3766C28.493 33.7285 27.1724 32.3924 25.5434 32.3924C23.9143 32.3924 22.5938 33.7285 22.5938 35.3766C22.5938 37.0247 23.9143 38.3607 25.5434 38.3607Z" fill="#82181A"/>
<path d="M33.8207 21.7402C35.4497 21.7402 36.7703 20.4042 36.7703 18.7561C36.7703 17.108 35.4497 15.7719 33.8207 15.7719C32.1917 15.7719 30.8711 17.108 30.8711 18.7561C30.8711 20.4042 32.1917 21.7402 33.8207 21.7402Z" fill="#82181A"/>
<path d="M33.8207 30.0505C35.4497 30.0505 36.7703 28.7144 36.7703 27.0663C36.7703 25.4182 35.4497 24.0822 33.8207 24.0822C32.1917 24.0822 30.8711 25.4182 30.8711 27.0663C30.8711 28.7144 32.1917 30.0505 33.8207 30.0505Z" fill="#82181A"/>
<path d="M33.8207 38.3607C35.4497 38.3607 36.7703 37.0247 36.7703 35.3766C36.7703 33.7285 35.4497 32.3924 33.8207 32.3924C32.1917 32.3924 30.8711 33.7285 30.8711 35.3766C30.8711 37.0247 32.1917 38.3607 33.8207 38.3607Z" fill="#82181A"/>
</svg>
